<mxfile host="app.diagrams.net" modified="2023-11-18T02:01:38.614Z" agent="Mozilla/5.0 (Windows NT 10.0; Win64; x64) AppleWebKit/537.36 (KHTML, like Gecko) Chrome/116.0.0.0 Safari/537.36" etag="6Hwhd6hXUTtMk4jemSXk" version="22.1.3" type="github">
  <diagram name="Page-1" id="5f0bae14-7c28-e335-631c-24af17079c00">
    <mxGraphModel dx="1434" dy="725" grid="1" gridSize="10" guides="1" tooltips="1" connect="1" arrows="1" fold="1" page="1" pageScale="1" pageWidth="1100" pageHeight="850" background="none" math="0" shadow="0">
      <root>
        <mxCell id="0" />
        <mxCell id="1" parent="0" />
        <mxCell id="jNQvJqfRvDApqJ6vYRKp-1" value="&amp;lt;&amp;lt;interface&amp;gt;&amp;gt;&lt;br&gt;form.component.html" style="shape=module;align=left;spacingLeft=20;align=center;verticalAlign=top;whiteSpace=wrap;html=1;" parent="1" vertex="1">
          <mxGeometry x="280" y="160" width="170" height="50" as="geometry" />
        </mxCell>
        <mxCell id="jNQvJqfRvDApqJ6vYRKp-2" value="&amp;lt;&amp;lt;component&amp;gt;&amp;gt;&lt;br&gt;form.component.ts" style="shape=module;align=left;spacingLeft=20;align=center;verticalAlign=top;whiteSpace=wrap;html=1;" parent="1" vertex="1">
          <mxGeometry x="490" y="160" width="170" height="50" as="geometry" />
        </mxCell>
        <mxCell id="jNQvJqfRvDApqJ6vYRKp-3" value="&amp;lt;&amp;lt;style&amp;gt;&amp;gt;&lt;br&gt;form.component.css" style="shape=module;align=left;spacingLeft=20;align=center;verticalAlign=top;whiteSpace=wrap;html=1;" parent="1" vertex="1">
          <mxGeometry x="70" y="160" width="170" height="50" as="geometry" />
        </mxCell>
        <mxCell id="jNQvJqfRvDApqJ6vYRKp-4" value="&amp;lt;&amp;lt;library&amp;gt;&amp;gt;&lt;br&gt;Bootstrap" style="shape=module;align=left;spacingLeft=20;align=center;verticalAlign=top;whiteSpace=wrap;html=1;" parent="1" vertex="1">
          <mxGeometry x="280" y="80" width="170" height="50" as="geometry" />
        </mxCell>
        <mxCell id="jNQvJqfRvDApqJ6vYRKp-5" value="&amp;lt;&amp;lt;library&amp;gt;&amp;gt;&lt;br&gt;NodeMailer" style="shape=module;align=left;spacingLeft=20;align=center;verticalAlign=top;whiteSpace=wrap;html=1;fillColor=#e1d5e7;strokeColor=#9673a6;" parent="1" vertex="1">
          <mxGeometry x="700" y="345" width="110" height="50" as="geometry" />
        </mxCell>
        <mxCell id="jNQvJqfRvDApqJ6vYRKp-6" value="&amp;lt;&amp;lt;library&amp;gt;&amp;gt;&lt;br&gt;SweetAlert" style="shape=module;align=left;spacingLeft=20;align=center;verticalAlign=top;whiteSpace=wrap;html=1;" parent="1" vertex="1">
          <mxGeometry x="700" y="260" width="170" height="50" as="geometry" />
        </mxCell>
        <mxCell id="jNQvJqfRvDApqJ6vYRKp-7" value="&amp;lt;&amp;lt;method&amp;gt;&amp;gt;&lt;br&gt;notificarEstudiante" style="shape=module;align=left;spacingLeft=20;align=center;verticalAlign=top;whiteSpace=wrap;html=1;fillColor=#e1d5e7;strokeColor=#9673a6;" parent="1" vertex="1">
          <mxGeometry x="490" y="345" width="170" height="50" as="geometry" />
        </mxCell>
        <mxCell id="jNQvJqfRvDApqJ6vYRKp-8" value="&amp;lt;&amp;lt;service&amp;gt;&amp;gt;&lt;br&gt;notifi.service.js" style="shape=module;align=left;spacingLeft=20;align=center;verticalAlign=top;whiteSpace=wrap;html=1;fillColor=#e1d5e7;strokeColor=#9673a6;" parent="1" vertex="1">
          <mxGeometry x="490" y="260" width="170" height="50" as="geometry" />
        </mxCell>
        <mxCell id="jNQvJqfRvDApqJ6vYRKp-9" value="&amp;lt;&amp;lt;service&amp;gt;&amp;gt;&lt;br&gt;registro.service.js" style="shape=module;align=left;spacingLeft=20;align=center;verticalAlign=top;whiteSpace=wrap;html=1;" parent="1" vertex="1">
          <mxGeometry x="280" y="260" width="170" height="50" as="geometry" />
        </mxCell>
        <mxCell id="jNQvJqfRvDApqJ6vYRKp-10" value="" style="rounded=0;orthogonalLoop=1;jettySize=auto;html=1;endArrow=halfCircle;endFill=0;endSize=6;strokeWidth=1;sketch=0;" parent="1" source="jNQvJqfRvDApqJ6vYRKp-1" target="jNQvJqfRvDApqJ6vYRKp-12" edge="1">
          <mxGeometry relative="1" as="geometry">
            <mxPoint x="270" y="285" as="sourcePoint" />
          </mxGeometry>
        </mxCell>
        <mxCell id="jNQvJqfRvDApqJ6vYRKp-11" value="" style="rounded=0;orthogonalLoop=1;jettySize=auto;html=1;endArrow=oval;endFill=0;sketch=0;sourcePerimeterSpacing=0;targetPerimeterSpacing=0;endSize=10;" parent="1" source="jNQvJqfRvDApqJ6vYRKp-2" target="jNQvJqfRvDApqJ6vYRKp-12" edge="1">
          <mxGeometry relative="1" as="geometry">
            <mxPoint x="230" y="285" as="sourcePoint" />
          </mxGeometry>
        </mxCell>
        <mxCell id="jNQvJqfRvDApqJ6vYRKp-12" value="" style="ellipse;whiteSpace=wrap;html=1;align=center;aspect=fixed;fillColor=none;strokeColor=none;resizable=0;perimeter=centerPerimeter;rotatable=0;allowArrows=0;points=[];outlineConnect=1;" parent="1" vertex="1">
          <mxGeometry x="470" y="180" width="10" height="10" as="geometry" />
        </mxCell>
        <mxCell id="jNQvJqfRvDApqJ6vYRKp-13" value="" style="rounded=0;orthogonalLoop=1;jettySize=auto;html=1;endArrow=halfCircle;endFill=0;endSize=6;strokeWidth=1;sketch=0;" parent="1" source="jNQvJqfRvDApqJ6vYRKp-1" target="jNQvJqfRvDApqJ6vYRKp-15" edge="1">
          <mxGeometry relative="1" as="geometry">
            <mxPoint x="280" y="185" as="sourcePoint" />
          </mxGeometry>
        </mxCell>
        <mxCell id="jNQvJqfRvDApqJ6vYRKp-14" value="" style="rounded=0;orthogonalLoop=1;jettySize=auto;html=1;endArrow=oval;endFill=0;sketch=0;sourcePerimeterSpacing=0;targetPerimeterSpacing=0;endSize=10;" parent="1" source="jNQvJqfRvDApqJ6vYRKp-3" target="jNQvJqfRvDApqJ6vYRKp-15" edge="1">
          <mxGeometry relative="1" as="geometry">
            <mxPoint x="240" y="185" as="sourcePoint" />
          </mxGeometry>
        </mxCell>
        <mxCell id="jNQvJqfRvDApqJ6vYRKp-15" value="" style="ellipse;whiteSpace=wrap;html=1;align=center;aspect=fixed;fillColor=none;strokeColor=none;resizable=0;perimeter=centerPerimeter;rotatable=0;allowArrows=0;points=[];outlineConnect=1;" parent="1" vertex="1">
          <mxGeometry x="255" y="180" width="10" height="10" as="geometry" />
        </mxCell>
        <mxCell id="jNQvJqfRvDApqJ6vYRKp-16" value="" style="rounded=0;orthogonalLoop=1;jettySize=auto;html=1;endArrow=halfCircle;endFill=0;endSize=6;strokeWidth=1;sketch=0;" parent="1" source="jNQvJqfRvDApqJ6vYRKp-9" target="jNQvJqfRvDApqJ6vYRKp-18" edge="1">
          <mxGeometry relative="1" as="geometry">
            <mxPoint x="410" y="245" as="sourcePoint" />
          </mxGeometry>
        </mxCell>
        <mxCell id="jNQvJqfRvDApqJ6vYRKp-17" value="" style="rounded=0;orthogonalLoop=1;jettySize=auto;html=1;endArrow=oval;endFill=0;sketch=0;sourcePerimeterSpacing=0;targetPerimeterSpacing=0;endSize=10;" parent="1" source="jNQvJqfRvDApqJ6vYRKp-1" target="jNQvJqfRvDApqJ6vYRKp-18" edge="1">
          <mxGeometry relative="1" as="geometry">
            <mxPoint x="370" y="245" as="sourcePoint" />
          </mxGeometry>
        </mxCell>
        <mxCell id="jNQvJqfRvDApqJ6vYRKp-18" value="" style="ellipse;whiteSpace=wrap;html=1;align=center;aspect=fixed;fillColor=none;strokeColor=none;resizable=0;perimeter=centerPerimeter;rotatable=0;allowArrows=0;points=[];outlineConnect=1;" parent="1" vertex="1">
          <mxGeometry x="360" y="230" width="10" height="10" as="geometry" />
        </mxCell>
        <mxCell id="jNQvJqfRvDApqJ6vYRKp-20" value="&amp;lt;&amp;lt;method&amp;gt;&amp;gt;&lt;br&gt;guardarEstudiante" style="shape=module;align=left;spacingLeft=20;align=center;verticalAlign=top;whiteSpace=wrap;html=1;" parent="1" vertex="1">
          <mxGeometry x="280" y="345" width="170" height="50" as="geometry" />
        </mxCell>
        <mxCell id="jNQvJqfRvDApqJ6vYRKp-21" value="" style="rounded=0;orthogonalLoop=1;jettySize=auto;html=1;endArrow=halfCircle;endFill=0;endSize=6;strokeWidth=1;sketch=0;" parent="1" source="jNQvJqfRvDApqJ6vYRKp-1" target="jNQvJqfRvDApqJ6vYRKp-23" edge="1">
          <mxGeometry relative="1" as="geometry">
            <mxPoint x="370" y="185" as="sourcePoint" />
          </mxGeometry>
        </mxCell>
        <mxCell id="jNQvJqfRvDApqJ6vYRKp-22" value="" style="rounded=0;orthogonalLoop=1;jettySize=auto;html=1;endArrow=oval;endFill=0;sketch=0;sourcePerimeterSpacing=0;targetPerimeterSpacing=0;endSize=10;" parent="1" source="jNQvJqfRvDApqJ6vYRKp-4" target="jNQvJqfRvDApqJ6vYRKp-23" edge="1">
          <mxGeometry relative="1" as="geometry">
            <mxPoint x="340" y="145" as="sourcePoint" />
          </mxGeometry>
        </mxCell>
        <mxCell id="jNQvJqfRvDApqJ6vYRKp-23" value="" style="ellipse;whiteSpace=wrap;html=1;align=center;aspect=fixed;fillColor=none;strokeColor=none;resizable=0;perimeter=centerPerimeter;rotatable=0;allowArrows=0;points=[];outlineConnect=1;" parent="1" vertex="1">
          <mxGeometry x="360" y="140" width="10" height="10" as="geometry" />
        </mxCell>
        <mxCell id="jNQvJqfRvDApqJ6vYRKp-24" value="" style="rounded=0;orthogonalLoop=1;jettySize=auto;html=1;endArrow=halfCircle;endFill=0;endSize=6;strokeWidth=1;sketch=0;" parent="1" source="jNQvJqfRvDApqJ6vYRKp-20" target="jNQvJqfRvDApqJ6vYRKp-26" edge="1">
          <mxGeometry relative="1" as="geometry">
            <mxPoint x="570" y="325" as="sourcePoint" />
          </mxGeometry>
        </mxCell>
        <mxCell id="jNQvJqfRvDApqJ6vYRKp-25" value="" style="rounded=0;orthogonalLoop=1;jettySize=auto;html=1;endArrow=oval;endFill=0;sketch=0;sourcePerimeterSpacing=0;targetPerimeterSpacing=0;endSize=10;" parent="1" source="jNQvJqfRvDApqJ6vYRKp-9" target="jNQvJqfRvDApqJ6vYRKp-26" edge="1">
          <mxGeometry relative="1" as="geometry">
            <mxPoint x="530" y="325" as="sourcePoint" />
          </mxGeometry>
        </mxCell>
        <mxCell id="jNQvJqfRvDApqJ6vYRKp-26" value="" style="ellipse;whiteSpace=wrap;html=1;align=center;aspect=fixed;fillColor=none;strokeColor=none;resizable=0;perimeter=centerPerimeter;rotatable=0;allowArrows=0;points=[];outlineConnect=1;" parent="1" vertex="1">
          <mxGeometry x="360" y="320" width="10" height="10" as="geometry" />
        </mxCell>
        <mxCell id="jNQvJqfRvDApqJ6vYRKp-27" value="" style="rounded=0;orthogonalLoop=1;jettySize=auto;html=1;endArrow=halfCircle;endFill=0;endSize=6;strokeWidth=1;sketch=0;" parent="1" source="jNQvJqfRvDApqJ6vYRKp-8" target="jNQvJqfRvDApqJ6vYRKp-29" edge="1">
          <mxGeometry relative="1" as="geometry">
            <mxPoint x="570" y="365" as="sourcePoint" />
          </mxGeometry>
        </mxCell>
        <mxCell id="jNQvJqfRvDApqJ6vYRKp-28" value="" style="rounded=0;orthogonalLoop=1;jettySize=auto;html=1;endArrow=oval;endFill=0;sketch=0;sourcePerimeterSpacing=0;targetPerimeterSpacing=0;endSize=10;" parent="1" source="jNQvJqfRvDApqJ6vYRKp-9" target="jNQvJqfRvDApqJ6vYRKp-29" edge="1">
          <mxGeometry relative="1" as="geometry">
            <mxPoint x="530" y="365" as="sourcePoint" />
          </mxGeometry>
        </mxCell>
        <mxCell id="jNQvJqfRvDApqJ6vYRKp-29" value="" style="ellipse;whiteSpace=wrap;html=1;align=center;aspect=fixed;fillColor=none;strokeColor=none;resizable=0;perimeter=centerPerimeter;rotatable=0;allowArrows=0;points=[];outlineConnect=1;" parent="1" vertex="1">
          <mxGeometry x="470" y="280" width="10" height="10" as="geometry" />
        </mxCell>
        <mxCell id="jNQvJqfRvDApqJ6vYRKp-30" value="" style="rounded=0;orthogonalLoop=1;jettySize=auto;html=1;endArrow=halfCircle;endFill=0;endSize=6;strokeWidth=1;sketch=0;" parent="1" source="jNQvJqfRvDApqJ6vYRKp-8" target="jNQvJqfRvDApqJ6vYRKp-32" edge="1">
          <mxGeometry relative="1" as="geometry">
            <mxPoint x="680" y="390" as="sourcePoint" />
          </mxGeometry>
        </mxCell>
        <mxCell id="jNQvJqfRvDApqJ6vYRKp-31" value="" style="rounded=0;orthogonalLoop=1;jettySize=auto;html=1;endArrow=oval;endFill=0;sketch=0;sourcePerimeterSpacing=0;targetPerimeterSpacing=0;endSize=10;" parent="1" source="jNQvJqfRvDApqJ6vYRKp-6" target="jNQvJqfRvDApqJ6vYRKp-32" edge="1">
          <mxGeometry relative="1" as="geometry">
            <mxPoint x="640" y="390" as="sourcePoint" />
          </mxGeometry>
        </mxCell>
        <mxCell id="jNQvJqfRvDApqJ6vYRKp-32" value="" style="ellipse;whiteSpace=wrap;html=1;align=center;aspect=fixed;fillColor=none;strokeColor=none;resizable=0;perimeter=centerPerimeter;rotatable=0;allowArrows=0;points=[];outlineConnect=1;" parent="1" vertex="1">
          <mxGeometry x="680" y="280" width="10" height="10" as="geometry" />
        </mxCell>
        <mxCell id="jNQvJqfRvDApqJ6vYRKp-33" value="" style="rounded=0;orthogonalLoop=1;jettySize=auto;html=1;endArrow=halfCircle;endFill=0;endSize=6;strokeWidth=1;sketch=0;" parent="1" source="jNQvJqfRvDApqJ6vYRKp-7" target="jNQvJqfRvDApqJ6vYRKp-35" edge="1">
          <mxGeometry relative="1" as="geometry">
            <mxPoint x="770" y="385" as="sourcePoint" />
          </mxGeometry>
        </mxCell>
        <mxCell id="jNQvJqfRvDApqJ6vYRKp-34" value="" style="rounded=0;orthogonalLoop=1;jettySize=auto;html=1;endArrow=oval;endFill=0;sketch=0;sourcePerimeterSpacing=0;targetPerimeterSpacing=0;endSize=10;" parent="1" source="jNQvJqfRvDApqJ6vYRKp-8" target="jNQvJqfRvDApqJ6vYRKp-35" edge="1">
          <mxGeometry relative="1" as="geometry">
            <mxPoint x="730" y="385" as="sourcePoint" />
          </mxGeometry>
        </mxCell>
        <mxCell id="jNQvJqfRvDApqJ6vYRKp-35" value="" style="ellipse;whiteSpace=wrap;html=1;align=center;aspect=fixed;fillColor=none;strokeColor=none;resizable=0;perimeter=centerPerimeter;rotatable=0;allowArrows=0;points=[];outlineConnect=1;" parent="1" vertex="1">
          <mxGeometry x="570" y="320" width="10" height="10" as="geometry" />
        </mxCell>
        <mxCell id="jNQvJqfRvDApqJ6vYRKp-36" value="" style="rounded=0;orthogonalLoop=1;jettySize=auto;html=1;endArrow=halfCircle;endFill=0;endSize=6;strokeWidth=1;sketch=0;" parent="1" source="jNQvJqfRvDApqJ6vYRKp-5" target="jNQvJqfRvDApqJ6vYRKp-38" edge="1">
          <mxGeometry relative="1" as="geometry">
            <mxPoint x="660" y="465" as="sourcePoint" />
          </mxGeometry>
        </mxCell>
        <mxCell id="jNQvJqfRvDApqJ6vYRKp-37" value="" style="rounded=0;orthogonalLoop=1;jettySize=auto;html=1;endArrow=oval;endFill=0;sketch=0;sourcePerimeterSpacing=0;targetPerimeterSpacing=0;endSize=10;" parent="1" source="jNQvJqfRvDApqJ6vYRKp-7" target="jNQvJqfRvDApqJ6vYRKp-38" edge="1">
          <mxGeometry relative="1" as="geometry">
            <mxPoint x="620" y="465" as="sourcePoint" />
          </mxGeometry>
        </mxCell>
        <mxCell id="jNQvJqfRvDApqJ6vYRKp-38" value="" style="ellipse;whiteSpace=wrap;html=1;align=center;aspect=fixed;fillColor=none;strokeColor=none;resizable=0;perimeter=centerPerimeter;rotatable=0;allowArrows=0;points=[];outlineConnect=1;" parent="1" vertex="1">
          <mxGeometry x="680" y="365" width="10" height="10" as="geometry" />
        </mxCell>
      </root>
    </mxGraphModel>
  </diagram>
</mxfile>
